<?xml version="1.0" encoding="UTF-8"?>
<svg viewBox="0 0 637 600" xmlns="http://www.w3.org/2000/svg">
 <g transform="matrix(.106,0,0,-.106,-8.5,679)" fill="none" stroke="#000">
  <g fill="#000" stroke="none">
   <path d="m2893.5 2425.8a1260 1260 0 1 0 -2520 0 1260 1260 0 1 0 2520 0"/>
   <path d="m5696.8 2327.9a1260 1260 0 1 0 -2520 0 1260 1260 0 1 0 2520 0"/>
   <path d="m4380 4804.5a1260 1260 0 1 0 -2520 0 1260 1260 0 1 0 2520 0"/>
   <path d="m846.61 1166.4c221.06-138.14 474.59-215.65 735.11-224.75 819.64-28.622 1507.3 612.63 1535.9 1432.3 18.51 530.22-247.24 1030-697.17 1311.2z"/>
   <path d="m5920.9 2276c28.62 819.64-612.62 1507.3-1432.3 1535.9-819.64 28.62-1507.3-612.62-1535.9-1432.3z"/>
   <path d="m2422.8 6115.7c-468.44-249.07-768.41-729.13-786.93-1259.4-28.62-819.64 612.63-1507.3 1432.3-1535.9 260.52-9.1 518.83 50.54 748.99 172.92z"/>
  </g>
  <g stroke-linecap="round" stroke-width="165">
   <path d="m2245.6 3405.2c-78.61 56.91-177.63 110.24-268.34 144.76-92.3 35.12-203.71 61.34-301.97 71.26-99.96 10.1-216.33 6.4-315.48-9.83-100.84-16.51-214.15-50.9-307.24-93.04-94.643-42.85-196.8-106.55-277.07-172.52-81.582-67.05-165.04-156.55-226.4-242.5-62.355-87.33-120.63-197.19-158.16-297.73-38.127-102.14-66.308-225.3-76.597-333.83-10.451-110.24-5.606-238.47 12.931-347.65 18.824-110.85 57.387-235.32 104.35-337.49 47.68-103.72 118.3-215.58 191.27-303.37 74.07-89.1 172.76-180.13 267.43-246.95 96.061-67.8 216.76-131.01 327.13-171.55 111.98-41.13 246.88-71.278 365.7-81.931 120.51-10.805 260.6-4.818 379.8 16.028 120.87 21.143 256.5 63.873 367.75 115.66 112.8 52.51 234.36 130.05 329.67 210.04 96.62 81.08 195.23 188.97 267.5 292.35 73.24 104.78 141.4 236.33 184.95 356.53"/>
   <path d="m3282.5 2368.2c-9.98-96.54-6.66-208.96 8.8-304.77 15.74-97.5 48.74-207.09 89.27-297.15 41.24-91.62 102.63-190.55 166.26-268.3 64.71-79.08 151.15-160.01 234.19-219.55 84.43-60.54 190.68-117.17 287.94-153.69 98.86-37.13 218.1-64.66 323.21-74.82 106.81-10.34 231.09-5.87 336.92 11.89 107.52 18.06 228.27 55.23 327.41 100.59 100.7 46.06 209.32 114.38 294.6 185.02 86.6 71.73 175.11 167.36 240.1 259.11 65.99 93.16 127.55 210.24 167.09 317.34 40.13 108.69 69.62 239.68 80.15 355.07 10.69 117.09 5.08 253.23-14.99 369.08-20.37 117.54-61.72 249.44-111.9 357.67-50.9 109.77-126.13 228.1-203.78 320.9-78.74 94.11-183.57 190.2-284.04 260.65-101.88 71.43-229.81 137.94-346.73 180.48-118.53 43.13-261.27 74.59-386.94 85.49-127.37 11.04-275.36 4.29-401.23-18.1-127.56-22.68-270.63-68.2-387.93-123.2"/>
   <path d="m3662.2 3784.7c88.59 39.63 184.29 98.71 259.53 160.01 76.57 62.37 154.98 145.75 212.71 225.88 58.72 81.52 113.7 184.15 149.22 278.14 36.13 95.58 63 210.9 73.04 312.59 10.22 103.39 6.14 223.71-10.86 326.2-17.28 104.18-53.06 221.21-96.81 317.32-44.46 97.67-110.47 203.07-178.77 285.84-69.39 84.09-161.96 170.07-250.81 233.25-90.24 64.17-203.72 124.09-307.53 162.62-105.42 39.13-232.49 67.97-344.46 78.38-113.66 10.57-245.84 5.34-358.36-13.97-114.19-19.59-242.38-59.55-347.58-108.12-106.74-49.29-221.84-122.21-312.13-197.53-91.61-76.4-185.17-178.16-253.8-275.73-69.62-98.97-134.48-223.29-176.02-336.93-42.13-115.26-72.93-254.08-83.71-376.32-10.92-123.94-4.55-267.98 17.06-390.52 21.92-124.21 66.04-263.56 119.44-377.83 54.12-115.83 133.96-240.62 216.29-338.44 83.42-99.12 194.37-200.26 300.66-274.35"/>
   <path d="m3066.7,3279.21c127.37-11.05 275.37-4.3 401.24,18.09 127.56,22.68 270.62,68.2 387.925,123.205 93.085,42.145 206.395,76.535 307.235,93.035 99.15,16.23 215.52,19.93 315.49,9.84 98.26-9.93 209.66-36.14 301.97-71.27 90.7-34.52 189.72-87.85 268.33-144.76 77.23-55.91 157.54-131.79 217.58-205.85 58.95-72.74 115.74-165.2 153.75-250.77 37.32-84 67.54-186.15 81.72-276.97 13.93-89.14 16.49-193.65 6.74-283.33-9.56-87.99-33.81-187.65-65.93-270.11-31.5-80.88-79.9-169.05-131.36-238.94-50.46-68.51-118.76-139.63-185.31-192.65-65.21-51.95-147.98-101.81-224.47-134.99-74.92-32.5-165.91-58.55-246.71-70.41-79.11-11.62-171.77-13.04-251.17-3.65-77.71,9.2-165.62,31.48-238.25,60.61-71.04,28.49-148.38,71.94-209.54,117.96-59.8,45-121.73,105.73-167.72,164.76-44.95,57.69-87.89,130.75-116.24,198.17-27.68,65.84-49.55,145.67-59.09,216.45-9.32,69.09-9.6,149.89-.55,219.02 8.82,67.43 29.14,143.59 55.27,206.38 25.47,61.22 63.99,127.72 104.57,180.15 39.54,51.08 92.69,103.82 144.21,142.79 50.16,37.94 113.53,73.97 171.86,97.47 56.76,22.87 125.44,40.57 186.2,47.79 59.07,7.01 128.02,6.15 186.86-2.55 57.16-8.45 121.57-26.8 174.52-49.94 51.39-22.45 107.05-56.03 150.75-91.17 42.38-34.08 85.92-79.66 117.87-123.66 30.94-42.63 60.05-96.31 78.71-145.57 18.06-47.67 31.59-105.19 36.47-155.93 4.72-49.05 2.72-106.15-5.65-154.71-8.07-46.89-24.45-99.56-44.6-142.66-19.43-41.56-48.07-86.39-77.78-121.35-28.61-33.67-66.61-68.03-103.11-92.94-35.09-23.95-79.08-46.15-119.26-59.95-38.59-13.26-84.96-22.62-125.68-25.16-39.03-2.44-84.28.71-122.55,8.74-36.62,7.69-77.55,22.11-110.8,39.28-31.75,16.39-65.74,40.09-91.95,64.38-24.98,23.14-50.16,53.57-68.01,82.56-16.98,27.56-32.27,61.85-41.2,92.97-8.47,29.49-13.66,64.72-13.84,95.41-.17,29.02 4.12,62.42 11.84,90.39 7.27,26.37 19.74,55.57 33.94,78.94 13.34,21.95 32.12,45.13 50.98,62.56 17.66,16.31 40.53,32.31 62.02,43.08 20.01,10.04 44.64,18.42 66.66,22.44 20.42,3.72 44.52,4.75 65.16,2.53 19.03-2.05 40.61-7.49 58.24-14.94 16.15-6.82 33.64-17.34 47.07-28.61 12.22-10.26 24.6-24.13 33.16-37.59 7.74-12.15 14.58-27.5 18.16-41.46 3.2-12.5 4.68-27.5 3.67-40.37-.89-11.42-4.05-24.46-8.78-34.9-4.17-9.19-10.81-19.02-18.03-26.07-6.34-6.19-15.03-12.02-23.28-15.21-7.27-2.82-16.42-4.37-24.19-3.77-6.98.53-15,3.03-20.92,6.77-5.54,3.51-10.98,9.29-14.06,15.09-3.09,5.79-8.52,11.57-14.07,15.08-5.91,3.74-13.94,6.24-20.91,6.78-7.78.59-16.93-.96-24.19-3.77-8.26-3.2-16.95-9.03-23.28-15.21-7.22-7.06-13.87-16.89-18.03-26.08-4.73-10.44-7.89-23.48-8.79-34.9-1.01-12.86.47-27.87 3.68-40.37 3.58-13.95 10.41-29.31 18.15-41.46 8.57-13.46 20.94-27.33 33.17-37.59 13.43-11.27 30.92-21.78 47.07-28.61 17.63-7.45 39.21-12.88 58.23-14.93 20.64-2.23 44.74-1.2 65.16,2.53 22.03,4.02 46.65,12.4 66.67,22.43 21.48,10.77 44.36,26.77 62.01,43.08 18.87,17.44 37.64,40.61 50.98,62.56 14.21,23.38 26.67,52.57 33.95,78.94 7.71,27.97 12.01,61.37 11.84,90.39-.19,30.69-5.38,65.92-13.85,95.42-8.93,31.11-24.22,65.41-41.19,92.96-17.86,28.99-43.03,59.43-68.01,82.57-26.21,24.28-60.21,47.98-91.96,64.38-33.25,17.16-74.18,31.59-110.8,39.27-38.27,8.03-83.51,11.18-122.54,8.74-40.72-2.54-87.1-11.9-125.68-25.15-40.19-13.81-84.17-36.01-119.27-59.96-36.49-24.91-74.5-59.26-103.11-92.93-29.71-34.97-58.35-79.79-77.78-121.36-20.14-43.1-36.53-95.77-44.6-142.66-8.36-48.56-10.37-105.65-5.65-154.7 4.88-50.74 18.42-108.27 36.47-155.94 18.66-49.26 47.77-102.94 78.72-145.57 31.94-44 75.49-89.58 117.86-123.65 43.7-35.15 99.36-68.72 150.75-91.18 52.95-23.13 117.36-41.49 174.52-49.94 58.85-8.7 127.79-9.56 186.86-2.55 60.77,7.22 129.44,24.92 186.2,47.79 58.34,23.5 121.71,59.53 171.87,97.47 51.51,38.97 104.67,91.71 144.2,142.79 40.59,52.43 79.1,118.94 104.57,180.15 26.13,62.79 46.45,138.95 55.27,206.38 9.05,69.13 8.77,149.93-.54,219.02-9.54,70.78-31.42,150.62-59.1,216.46-28.34,67.41-71.29,140.48-116.23,198.16-46,59.04-107.92,119.76-167.72,164.76-61.16,46.02-138.5,89.48-209.55,117.97-72.62,29.12-160.53,51.4-238.24,60.6-79.41,9.39-172.06,7.97-251.18-3.64-80.8-11.87-171.79-37.92-246.71-70.42-76.49-33.18-159.26-83.04-224.47-134.99-66.55-53.02-134.85-124.13-185.3-192.64-51.47-69.89-99.86-158.07-131.37-238.94-32.12-82.47-56.37-182.13-65.93-270.11-9.74-89.69-7.18-194.2 6.74-283.33 14.19-90.82 44.4-192.97 81.72-276.98 38.02-85.56 94.8-178.03 153.76-250.77 60.03-74.06 140.34-149.94 217.57-205.85 78.61-56.91 177.63-110.24 268.34-144.76 92.3-35.12 203.71-61.34 301.97-71.26 99.96-10.1 216.33-6.4 315.48,9.83 100.84,16.51 214.15,50.9 307.24,93.04 94.64,42.85 196.8,106.55 277.07,172.51 81.58,67.06 165.04,156.56 226.4,242.5 62.35,87.34 120.63,197.2 158.16,297.74 38.12,102.14 66.3,225.29 76.59,333.83 10.45,110.24 5.61,238.47-12.93,347.64-18.82,110.86-57.39,235.33-104.35,337.49-47.68,103.73-118.3,215.59-191.27,303.37-74.07,89.1-172.77,180.14-267.43,246.95-96.06,67.81-216.76,131.02-327.13,171.56-111.98,41.13-246.88,71.27-365.7,81.93-120.51,10.8-260.6,4.82-379.8-16.03-120.87-21.14-256.5-63.88-367.75-115.665-99.14-45.355-219.89-82.525-327.41-100.585-105.83-17.76-230.11-22.23-336.92-11.89-105.11,10.16-224.35,37.69-323.21,74.82-97.26,36.52-203.51,93.15-287.94,153.69-83.04,59.54-169.47,140.47-234.19,219.55-63.63,77.75-125.02,176.68-166.26,268.3-40.53,90.06-73.53,199.65-89.27,297.15-15.46,95.81-18.78,208.23-8.8,304.77 9.81,94.83 35.37,202.32 69.49,291.35 33.51,87.42 85.2,182.83 140.29,258.53 54.09,74.33 127.45,151.57 199.01,209.27 70.23,56.62 159.46,111.09 242,147.5 80.98,35.71 179.41,64.54 266.89,77.95 85.79,13.16 186.35,15.34 272.61,5.71 84.56-9.44 180.3-33.03 259.49-64.16 77.59-30.5 162.16-77.24 229.14-126.9 65.6-48.63 133.66-114.41 184.33-178.45 49.62-62.7 97.18-142.24 128.74-215.7 30.9-71.9 55.55-159.17 66.64-236.63 10.85-75.77 11.89-164.48 2.61-240.45-9.07-74.29-30.69-158.28-58.82-227.63-27.48-67.77-69.29-141.49-113.5-199.75-43.18-56.89-101.38-115.75-157.91-159.4-55.17-42.62-125.01-83.26-189.4-109.99-62.81-26.07-138.93-46.56-206.37-55.32-65.75-8.55-142.6-8.45-208.29.48-64.01,8.7-136.26,28.37-195.77,53.5-57.94,24.46-120.83,61.33-170.35,100.1-48.18,37.72-97.85,88.35-134.48,137.36-35.61,47.65-69.33,107.79-91.22,163.1-21.26,53.73-37.57,118.69-44.01,176.11-6.25,55.73-5.01,120.72 3.58,176.14 8.33,53.74 26.02,114.24 48.16,163.9 21.45,48.11 53.38,100.17 86.71,140.95 32.25,39.48 75.31,79.96 116.81,109.56 40.12,28.61 90.56,55.42 136.8,72.46 44.64,16.45 98.45,28.6 145.85,32.7 45.71,3.96 98.85,1.57 143.98-6.68 43.47-7.94 92.22-23.68 132.04-42.83 38.29-18.42 79.51-45.41 111.56-73.31 30.77-26.79 62.06-62.27 84.62-96.26 21.63-32.58 41.52-73.34 53.7-110.5 11.66-35.56 19.63-78.21 21.39-115.59 1.68-35.69-1.85-76.99-9.77-111.83-7.55-33.2-21.32-70.22-37.5-100.18-15.38-28.48-37.44-58.87-59.91-82.16-21.32-22.08-49.23-44.19-75.72-59.69-25.04-14.66-56.11-27.64-84.2-34.95-26.47-6.88-57.98-10.68-85.33-10.07-25.68.58-55.14,5.25-79.67,12.87-22.95,7.13-48.24,18.95-68.31,32.17-18.7,12.31-38.27,29.45-52.77,46.51-13.43,15.82-26.38,36.18-34.77,55.17-7.74,17.5-13.82,38.91-16.18,57.9-2.17,17.4-1.8,37.8 1.24,55.07 2.77,15.71 8.6,33.37 15.97,47.51 6.66,12.78 16.53,26.38 26.83,36.46 9.22,9.02 21.48,17.81 33.12,23.36 10.34,4.94 23.22,8.72 34.62,9.85 10.04.99 21.88.15 31.6-2.58 8.52-2.39 17.92-7 24.81-12.55 6.07-4.89 11.99-12.04 15.36-19.07 3.03-6.31 4.87-14.51 4.59-21.5-.27-6.56-2.55-14.16-6.03-19.72-3.48-5.57-5.77-13.17-6.03-19.73-.29-6.99 1.56-15.19 4.59-21.5 3.37-7.02 9.29-14.17 15.36-19.06 6.89-5.56 16.29-10.16 24.81-12.56 9.72-2.72 21.56-3.56 31.6-2.57 11.4,1.12 24.28,4.9 34.61,9.84 11.65,5.56 23.9,14.34 33.12,23.37 10.3,10.07 20.18,23.67 26.84,36.45 7.37,14.15 13.19,31.8 15.96,47.51 3.05,17.27 3.41,37.67 1.25,55.08-2.37,18.98-8.45,40.39-16.19,57.9-8.39,18.98-21.33,39.34-34.77,55.16-14.49,17.06-34.06,34.2-52.76,46.52-20.07,13.22-45.36,25.03-68.31,32.16-24.54,7.62-53.99,12.3-79.68,12.87-27.34.62-58.86-3.19-85.33-10.07-28.08-7.3-59.15-20.29-84.2-34.94-26.49-15.5-54.4-37.62-75.71-59.7-22.48-23.29-44.54-53.68-59.91-82.16-16.18-29.96-29.95-66.98-37.5-100.18-7.92-34.84-11.45-76.13-9.78-111.83 1.76-37.37 9.73-80.03 21.39-115.59 12.18-37.16 32.08-77.91 53.7-110.5 22.56-33.99 53.86-69.47 84.63-96.26 32.05-27.9 73.26-54.89 111.55-73.31 39.82-19.15 88.58-34.88 132.04-42.83 45.14-8.25 98.28-10.63 143.99-6.68 47.4,4.11 101.21,16.25 145.85,32.7 46.23,17.05 96.68,43.85 136.8,72.47 41.5,29.6 84.55,70.08 116.81,109.55 33.33,40.79 65.26,92.84 86.7,140.95 22.14,49.67 39.84,110.17 48.17,163.9 8.58,55.42 9.83,120.41 3.58,176.14-6.44,57.43-22.75,122.39-44.02,176.11-21.88,55.31-55.61,115.46-91.22,163.1-36.63,49.02-86.3,99.64-134.48,137.36-49.52,38.77-112.41,75.64-170.35,100.11-59.51,25.13-131.75,44.79-195.76,53.49-65.7,8.93-142.55,9.03-208.3.49-67.44-8.77-143.55-29.26-206.37-55.33-64.38-26.73-134.22-67.37-189.4-109.98-56.52-43.66-114.73-102.52-157.9-159.41-44.21-58.25-86.02-131.98-113.5-199.75-28.13-69.35-49.76-153.34-58.83-227.62-9.28-75.98-8.24-164.69 2.61-240.46 11.09-77.46 35.75-164.73 66.64-236.62 31.57-73.47 79.13-153 128.74-215.71 50.68-64.04 118.73-129.82 184.34-178.45 66.98-49.65 151.54-96.4 229.14-126.9 79.19-31.12 174.93-54.72 259.49-64.15 86.26-9.63 186.82-7.45 272.61,5.7 87.48,13.41 185.91,42.24 266.89,77.96 82.54,36.4 171.77,90.87 242,147.5 71.56,57.69 144.91,134.94 199,209.26 55.1,75.7 106.78,171.11 140.3,258.54 34.12,89.02 59.68,196.51 69.48,291.35 9.98,96.53 6.66,208.95-8.8,304.76-15.73,97.5-48.73,207.09-89.27,297.15-41.23,91.62-102.63,190.55-166.26,268.3-64.71,79.08-151.15,160.01-234.19,219.56-84.43,60.54-190.67,117.16-287.93,153.69-98.86,37.12-218.1,64.65-323.21,74.82-106.82,10.33-231.1,5.87-336.93-11.9-107.52-18.05-228.26-55.23-327.4-100.58-100.7-46.07-209.33-114.38-294.61-185.02-86.59-71.73-175.1-167.36-240.1-259.12-65.98-93.15-127.55-210.24-167.09-317.33-40.12-108.7-69.62-239.69-80.15-355.08-10.68-117.09-5.08-253.22 15-369.08 20.37-117.54 61.71-249.44 111.89-357.66 50.9-109.78 126.13-228.1 203.78-320.9 78.75-94.12 183.57-190.2 284.05-260.655 88.85-63.185 181.41-149.165 250.81-233.255 68.3-82.77 134.3-188.16 178.76-285.83 43.75-96.12 79.53-213.14 96.81-317.32 17-102.5 21.08-222.82 10.87-326.21-10.05-101.68-36.92-217.01-73.04-312.59-35.52-93.98-90.5-196.61-149.23-278.14-57.73-80.13-136.13-163.5-212.7-225.88-75.25-61.29-170.94-120.38-259.54-160-87.03-38.93-192.9-70.54-287.06-85.5-92.47-14.69-200.94-17.63-294.05-7.77-91.41,9.68-194.98,34.58-280.73,67.71-84.15,32.51-175.94,82.55-248.74,135.83-71.412,52.27-145.594,123.1-200.95,192.15-54.287,67.72-106.455,153.72-141.247,233.24-34.106,77.95-61.544,172.66-74.183,256.8-12.385,82.45-14.184,179.06-4.674,261.89 9.316,81.13 32.254,172.96 62.379,248.87 29.495,74.32 74.594,155.27 122.432,219.34 46.816,62.7 110.068,127.69 171.603,176.03 60.2,47.28 136.5,92.53 206.94,122.48 68.86,29.29 152.42,52.56 226.54,62.87 72.43,10.08 157.18,10.74 229.73,1.58 70.86-8.95 150.94-29.92 217.01-57.05 64.49-26.47 134.6-66.63 189.95-109.03 53.98-41.36 109.78-97.04 151.1-151.06 40.27-52.67 78.61-119.27 103.72-180.63 24.47-59.79 43.57-132.18 51.56-196.28 7.78-62.41 7.29-135.31-1.52-197.58-8.58-60.59-27.58-128.92-51.71-185.15-23.47-54.66-58.69-113.93-95.64-160.55-35.9-45.27-84-91.88-130.51-126.17-45.14-33.27-102.05-64.69-154.34-84.97-50.7-19.65-111.94-34.58-166.02-40.24-52.39-5.48-113.43-3.86-165.42,4.62-50.31,8.2-106.9,25.24-153.28,46.38-44.84,20.44-93.28,50.72-131.16,82.24-36.57,30.44-73.99,70.96-101.24,109.96-26.28,37.61-50.78,84.82-66.21,128.04-14.85,41.61-25.6,91.7-28.93,135.76-3.19,42.37-.42,91.56 7.71,133.26 7.82,40.05 22.9,84.89 41.06,121.42 17.4,35.02 42.75,72.63 68.84,101.76 24.97,27.87 57.92,56.11 89.41,76.32 30.07,19.3 67.6,36.89 101.74,47.45 32.52,10.06 71.47,16.64 105.5,17.61 32.35.92 69.7-2.99 101.11-10.81 29.78-7.41 62.89-20.53 89.56-35.72 25.21-14.36 51.99-34.77 72.36-55.44 19.19-19.49 38.25-44.88 51.38-68.87 12.35-22.53 23.03-50.37 28.69-75.43 5.3-23.44 7.72-51.25 6.31-75.25-1.32-22.35-6.38-47.86-13.91-68.95-6.98-19.54-18.14-40.93-30.39-57.69-11.28-15.45-26.78-31.42-42.05-42.97-13.98-10.57-31.83-20.46-48.31-26.46-14.99-5.46-33.19-9.24-49.13-9.93-14.4-.62-31.11,1.14-44.99,5.02-12.43,3.47-26.16,9.69-36.8,16.99-9.44,6.49-19.16,15.75-25.83,25.06-5.88,8.2-11.07,18.88-13.57,28.66-2.18,8.57-2.89,19.01-1.53,27.76 1.2,7.7 4.43,16.4 8.83,22.83 3.95,5.78 10.13,11.48 16.33,14.73 5.81,3.05 13.53,4.87 20.09,4.64s14.28,1.59 20.1,4.64c6.2,3.25 12.37,8.95 16.32,14.73 4.4,6.43 7.64,15.13 8.83,22.83 1.37,8.74.66,19.19-1.53,27.76-2.5,9.78-7.69,20.45-13.57,28.66-6.67,9.31-16.39,18.57-25.83,25.05-10.63,7.31-24.37,13.53-36.79,17-13.88,3.88-30.6,5.64-44.99,5.02-15.94-.69-34.14-4.48-49.13-9.93-16.48-6-34.33-15.89-48.32-26.46-15.26-11.55-30.76-27.52-42.05-42.97-12.24-16.76-23.4-38.15-30.39-57.69-7.53-21.09-12.58-46.6-13.9-68.96-1.41-23.99 1-51.8 6.3-75.24 5.67-25.06 16.35-52.9 28.69-75.43 13.14-23.99 32.19-49.38 51.39-68.87 20.36-20.67 47.15-41.08 72.36-55.44 26.67-15.19 59.78-28.31 89.56-35.72 31.4-7.82 68.75-11.73 101.11-10.81 34.03.97 72.97,7.55 105.5,17.61 34.14,10.56 71.66,28.15 101.73,47.45 31.49,20.21 64.45,48.45 89.41,76.32 26.1,29.13 51.44,66.74 68.85,101.76 18.16,36.53 33.24,81.37 41.05,121.41 8.14,41.71 10.91,90.9 7.71,133.27-3.32,44.06-14.07,94.15-28.93,135.76-15.42,43.21-39.92,90.43-66.21,128.04-27.25,39-64.67,79.52-101.24,109.96-37.87,31.52-86.31,61.8-131.15,82.24-46.39,21.14-102.97,38.18-153.28,46.38-51.99,8.47-113.04,10.1-165.43,4.62-54.08-5.66-115.32-20.59-166.02-40.25-52.28-20.27-109.19-51.69-154.33-84.96-46.51-34.29-94.61-80.9-130.51-126.17-36.96-46.62-72.179-105.89-95.64-160.56-24.132-56.22-43.139-124.55-51.715-185.14-8.814-62.27-9.298-135.17-1.518-197.58 7.991-64.1 27.086-136.5 51.556-196.28 25.116-61.36 63.447-127.97 103.727-180.63 41.31-54.03 97.11-109.7 151.1-151.06 55.34-42.4 125.46-82.56 189.95-109.04 66.07-27.12 146.14-48.1 217-57.04 72.55-9.16 157.31-8.51 229.74,1.58 74.12,10.31 157.67,33.58 226.54,62.86 70.44,29.96 146.74,75.21 206.93,122.49 61.54,48.34 124.79,113.33 171.61,176.03 47.84,64.07 92.94,145.02 122.43,219.34 30.13,75.91 53.06,167.73 62.38,248.87 9.51,82.83 7.71,179.44-4.67,261.89-12.64,84.14-40.08,178.85-74.19,256.8-34.79,79.52-86.96,165.52-141.24,233.24-55.36,69.05-129.54,139.88-200.96,192.15-72.8,53.28-164.59,103.32-248.74,135.83-85.74,33.12-189.32,58.03-280.73,67.71-93.11,9.86-201.57,6.92-294.05-7.77-94.16-14.96-200.03-46.57-287.06-85.5-88.59-39.62-184.287-98.71-259.532-160-76.571-62.38-154.977-145.75-212.703-225.88-58.725-81.53-113.705-184.16-149.226-278.14-36.125-95.58-62.995-210.91-73.042-312.59-10.215-103.39-6.132-223.72 10.867-326.21 17.278-104.18 53.06-221.2 96.81-317.32 44.458-97.67 110.463-203.06 178.766-285.83 69.392-84.09 161.958-170.07 250.81-233.25 90.24-64.17 203.72-124.09 307.53-162.63 105.42-39.12 232.49-67.96 344.46-78.37 113.66-10.57 245.85-5.34 358.36,13.96 114.2,19.6 242.38,59.55 347.58,108.13 106.75,49.29 221.84,122.21 312.13,197.52 91.61,76.41 185.17,178.17 253.8,275.74 69.62,98.97 134.48,223.28 176.02,336.93 42.13,115.25 72.93,254.08 83.71,376.31 10.29,108.54 38.47,231.7 76.6,333.84 37.53,100.53 95.8,210.39 158.16,297.73m-234.76-631.57c-10.45-110.24-5.61-238.47 12.93-347.64 18.83-110.86 57.39-235.32 104.35-337.49" stroke="#fff"/>
  </g>
  <path d="m3024.3 2721.7c-19.91 127.22-63.7 270.22-118.3 386.8-55.44 118.4-138.77 245.37-225.07 343.62 120.12-46.37 265.86-79.94 394.13-90.95 130.26-11.18 281.88-2.51 410.12 23.11-100.22-80.85-202.16-190.27-275.84-295.85-74.81-107.21-143.1-242.86-185.04-366.72z" fill="#fff" stroke="none"/>
 </g>
</svg>
